<?xml version="1.0" encoding="utf-8"?>
<!DOCTYPE svg PUBLIC "-//W3C//DTD SVG 1.0//EN" "http://www.w3.org/TR/2001/REC-SVG-20010904/DTD/svg10.dtd">
<svg version="1.0" xmlns="http://www.w3.org/2000/svg" width="314px" height="256px" viewBox="0 0 314 256" preserveAspectRatio="xMidYMid meet">
 <g fill="#ffffff">
  <path d="M0 128 l0 -128 157 0 157 0 0 128 0 128 -157 0 -157 0 0 -128z m141.50 101.65 c1.25 -0.45 3.10 -1.40 4.10 -2.15 l1.90 -1.35 -1.20 -1.10 -1.15 -1.05 -2.35 1.30 c-1.90 1.05 -3.10 1.35 -5.95 1.40 -5.10 0.10 -7.10 -0.50 -9.45 -2.60 -3 -2.70 -3.90 -5 -3.90 -10.10 0 -4.80 0.90 -7.35 3.30 -9.60 2.30 -2.15 4.70 -2.90 9.35 -2.90 3.55 0 4.60 0.20 6.60 1.30 l2.40 1.25 1.05 -1.05 1.05 -1.05 -1.35 -1.20 c-0.75 -0.65 -2.65 -1.65 -4.25 -2.25 -2.40 -0.90 -3.60 -1.05 -6.90 -0.85 -4.85 0.25 -7.55 1.40 -11.10 4.55 -3.75 3.35 -5.35 6.95 -5.40 11.80 0 4.60 1.15 7.35 4.55 11 4.95 5.25 11.70 6.95 18.70 4.65z m-38.10 0.50 c-0.50 -0.10 -1.40 -0.10 -2 0 -0.65 0.10 -0.25 0.20 0.85 0.20 1.10 0.05 1.60 -0.05 1.15 -0.20z m62.30 -0.90 c2.35 -1.60 5.30 -1.75 5.30 -0.25 0 0.85 0.35 1 2.25 1 l2.25 0 0 -7.70 c0 -8.05 -0.35 -10 -2.30 -12.60 -2.80 -3.80 -9.90 -5.05 -15.80 -2.75 -2.60 1 -2.85 1.20 -2.35 2.10 0.45 0.85 0.80 0.95 2.10 0.60 0.90 -0.20 3.55 -0.40 5.95 -0.40 4.10 0 4.45 0.10 5.75 1.35 1.10 1.15 1.35 1.85 1.40 4 l0 2.65 -6 0.25 c-7.45 0.35 -9.80 1.40 -11.20 5.10 -0.40 1.05 -0.25 1.75 0.60 3.50 2.10 4.15 8.20 5.75 12.05 3.15z m31.10 0.60 c0.20 -0.15 0.20 -0.80 0.05 -1.45 -0.25 -1 -0.60 -1.15 -2.90 -1.15 -4.15 0 -4.45 -0.70 -4.45 -10.05 l0 -7.70 3.25 0 3.25 0 0 -1.50 0 -1.50 -3.25 0 -3.25 0 0 -3.25 0 -3.25 -2.50 0 -2.50 0 0 3.25 0 3.25 -2 0 c-1.90 0 -2 0.10 -2 1.45 0 1.35 0.15 1.50 1.90 1.65 l1.85 0.15 0.25 7.50 c0.20 5.80 0.45 7.85 1.10 9.10 0.95 1.65 3 3.35 4.65 3.80 1.25 0.35 6.15 0.15 6.55 -0.30z m-155.35 -10.05 c-0.10 -5.25 -0.10 -12.30 -0.05 -15.65 l0.10 -6.15 4.65 -0.10 4.60 -0.10 -3.75 -0.20 c-2.05 -0.10 -4.40 -0.05 -5.25 0.10 l-1.50 0.30 0.15 16 c0.10 11.40 0.30 15.95 0.65 15.70 0.40 -0.20 0.50 -3.35 0.40 -9.90z m19.20 1.65 c0.10 -6.70 0.25 -8.50 1 -9.80 0.85 -1.60 0.85 -1.65 -0.15 -1.65 -1 0 -1.05 -0.20 -0.90 -7 0.10 -3.85 0 -7 -0.15 -7 -0.60 0 -0.90 6.90 -0.65 15.50 0.10 4.80 0.20 11 0.20 13.70 0 2.75 0.10 4.85 0.25 4.70 0.15 -0.10 0.30 -3.90 0.40 -8.45z m20.70 -2.80 c-0.05 -2.15 -0.15 -0.40 -0.15 3.85 0 4.25 0.10 6 0.15 3.90 0.10 -2.15 0.10 -5.65 0 -7.75z m129.10 8.10 c0.60 -1.80 1.55 -3.50 2.05 -3.75 1.05 -0.55 17.45 -0.65 18.35 -0.10 0.30 0.20 1.20 1.85 1.95 3.75 l1.40 3.35 2.15 0 c1.20 0 2.15 -0.20 2.15 -0.45 0 -0.25 -0.75 -2.10 -1.70 -4.15 -3.20 -6.90 -6.80 -14.85 -6.80 -15.10 0 -0.10 -0.85 -2.10 -1.95 -4.40 -1.05 -2.25 -2.30 -5 -2.70 -6 -0.80 -1.90 -0.80 -1.90 -3.70 -1.90 l-2.90 0 -0.95 2.40 c-0.55 1.30 -1.80 4.25 -2.90 6.50 -1.05 2.30 -1.90 4.30 -1.90 4.40 0 0.15 -0.65 1.65 -1.45 3.35 -3.30 7.15 -6.55 14.45 -6.55 14.90 0 0.25 0.95 0.45 2.15 0.45 l2.10 0 1.20 -3.25z m39.15 -1.35 l0.15 -4.65 6 -0.25 c7.05 -0.35 9.50 -1 12.30 -3.45 3.65 -3.10 4.95 -8.05 3.15 -11.85 -1.15 -2.40 -4.85 -5.50 -7.70 -6.45 -2.30 -0.75 -6.75 -1 -16.10 -0.80 l-2.90 0.05 0 16 0 16 2.50 0 2.45 0 0.15 -4.60z m34.40 -11.40 l0 -16 -1.35 0 c-0.80 0 -1.90 -0.15 -2.50 -0.30 l-1.15 -0.30 0 16.30 0 16.30 2.50 0 2.50 0 0 -16z m-193.45 2.75 l-0.25 -1.50 -0.30 1.55 c-0.20 0.85 -0.20 2.35 -0.05 3.25 l0.25 1.70 0.30 -1.75 c0.15 -0.95 0.15 -2.40 0.05 -3.25z m-53.90 -19.10 c-0.90 -0.10 -2.40 -0.10 -3.25 0 -0.90 0.10 -0.20 0.20 1.60 0.20 1.80 0 2.50 -0.10 1.65 -0.20z m122.55 -20.25 c0.40 -0.65 1.30 -3.05 2.05 -5.40 1.80 -5.95 3.10 -8.05 5.65 -9.35 6.60 -3.30 17.35 -1.10 24.60 5.10 3.80 3.30 10.40 8.35 12.55 9.65 1.95 1.15 3.20 1.40 3.70 0.65 0.30 -0.55 -2.50 -8.85 -6 -17.80 -1.30 -3.30 -2.85 -7.45 -3.50 -9.25 -0.60 -1.80 -1.60 -4.45 -2.20 -5.90 -0.55 -1.45 -1.05 -3.50 -1.05 -4.60 l0 -1.95 2.90 -0.55 c4.30 -0.90 10.15 -3.10 13.35 -5.05 4.45 -2.65 9.35 -8.15 11.65 -13.05 5.75 -12.30 5.60 -22.25 -0.50 -29.20 -4.05 -4.60 -11.05 -6.95 -14.90 -4.95 -1.45 0.75 -3 3 -3 4.40 0 1 2.45 3.15 6.85 6.05 4.20 2.75 6.80 5.75 7.65 8.70 0.25 1 0.50 3.55 0.50 5.60 0 11.80 -6.20 19.25 -17.95 21.75 -4.65 0.95 -17.25 1 -23.60 0.05 -10.45 -1.60 -26.60 -6 -30.30 -8.30 -1.40 -0.85 -1.65 -1.25 -1.65 -3 0 -2.40 -0.50 -2.25 10.35 -3 13.70 -0.90 21.85 -3.60 26.70 -8.90 7.40 -8.05 8.70 -20.90 3.65 -35.70 -1.90 -5.70 -1.75 -6.45 2.35 -11.40 1.95 -2.35 4.95 -6.40 6.75 -9 l3.25 -4.75 -2.90 -0.40 c-6.40 -0.85 -18.05 0.85 -25.10 3.65 -3.35 1.30 -5.45 1.25 -10.65 -0.25 -12.50 -3.60 -24.65 -4.95 -36.75 -4 l-5.15 0.40 0.05 -2.20 c0 -1.20 0.20 -5.35 0.40 -9.20 0.25 -3.85 0.35 -7.10 0.25 -7.20 -0.35 -0.40 -6.80 5.20 -11.45 10 -14.25 14.70 -22.90 30.90 -25.35 47.45 -0.50 3.40 -0.10 10.50 0.60 10.50 0.20 0 1 1 1.70 2.20 4.10 7.05 14.75 12.65 32.45 17.15 5 1.30 9.40 2.55 9.80 2.85 0.50 0.40 0.60 1.20 0.35 3.30 -2.60 21.40 0.60 44.55 6.90 50.45 l1.30 1.25 1.05 -1 c0.55 -0.60 1.45 -2.80 2 -5 1.50 -5.90 2.95 -6.95 7.55 -5.70 2.30 0.65 3.60 2.30 6.65 8.35 2.25 4.55 4.40 7.65 5.30 7.65 0.25 0 0.75 -0.50 1.15 -1.10z"/>
  <path d="M160.35 228 c-2.35 -0.70 -2.85 -1.40 -2.85 -4.20 0 -1.40 0.20 -2.80 0.40 -3.10 0.80 -1.25 2.80 -1.70 7.55 -1.70 l5.05 0 0 3 c0 2.55 -0.20 3.25 -1.20 4.25 -1.95 1.90 -5.80 2.70 -8.95 1.75z"/>
  <path d="M216.80 219.15 l-1.90 -0.20 0.20 -2.10 c0.15 -1.15 0.70 -3.10 1.25 -4.35 0.55 -1.25 1.55 -3.65 2.20 -5.35 1.15 -3.05 1.25 -3.15 3 -3.15 1.70 0 1.90 0.15 2.95 2.65 3.25 7.65 4.05 9.95 3.90 11.20 l-0.15 1.40 -4.75 0.05 c-2.60 0.05 -5.60 -0.05 -6.70 -0.15z"/>
  <path d="M249.75 214.45 c-0.15 -1.50 -0.25 -4.85 -0.15 -7.45 l0.15 -4.75 5 -0.45 c4.15 -0.35 5.45 -0.25 7.65 0.45 2.45 0.75 2.80 1.05 3.70 3.10 1.25 2.80 1.05 6.55 -0.45 8.55 -1.65 2.25 -3.40 2.75 -9.75 3 l-5.80 0.20 -0.35 -2.65z"/>
  <path d="M95.40 97.40 c-1.70 -1.40 -2.40 -3.15 -2.40 -6.05 0 -2.60 0.15 -3 1.05 -3.20 0.90 -0.25 0.65 -0.45 -1.35 -1.20 -3.65 -1.35 -5.95 -3.50 -6.70 -6.15 -1.30 -4.65 1.65 -13.60 5.25 -15.80 1.80 -1.10 6.10 -1.35 7.80 -0.50 1.85 1 2.60 3.45 2.85 9.30 0.15 3.95 0 6.75 -0.60 9.65 -0.90 4.30 -0.80 5.05 0.60 5.05 0.50 0 1.40 0.35 2 0.80 0.95 0.65 1.10 1.20 1 2.85 -0.15 1.80 -0.40 2.20 -1.75 2.85 -0.90 0.45 -2 1.25 -2.45 1.90 -0.85 1.25 -3.95 1.55 -5.30 0.50z"/>
  <path d="M118.65 92.80 c-2.50 -0.35 -5.15 -0.80 -5.90 -1 l-1.40 -0.35 0.35 -3.70 c0.90 -9.65 5.50 -17.40 12.20 -20.35 2.85 -1.30 9.15 -1.80 11.75 -0.95 2.45 0.85 5.15 3.95 6.05 7.10 1 3.40 1 10.05 0 13.40 -0.90 3.15 -2.40 4.75 -5 5.55 -3 0.85 -12.90 1.05 -18.05 0.30z"/>
  <path d="M178.15 61.65 c-2.55 -2.65 -3.15 -3.55 -3.15 -4.90 0 -1.50 0.15 -1.65 2.15 -2.15 5.35 -1.45 12.10 -2.05 14.05 -1.30 0.55 0.20 0.80 0.95 0.80 2.20 0 1.65 -0.45 2.35 -3.55 5.70 -3.20 3.45 -3.70 3.80 -5.35 3.75 -1.60 -0.05 -2.30 -0.55 -4.95 -3.30z"/>
 </g>
 <g fill="#ff6740">
  <path d="M202 231.45 c0 -0.40 5.30 -12.40 7.95 -18.10 0.85 -1.80 1.55 -3.40 1.55 -3.55 0 -0.10 0.85 -2.10 1.90 -4.40 1.05 -2.25 2.35 -5.15 2.85 -6.40 0.55 -1.25 1.15 -2.35 1.35 -2.50 0.20 -0.15 2.10 -0.25 4.25 -0.20 3.60 0.05 3.95 0.15 4.55 1.25 0.90 1.75 5.10 11 5.10 11.25 0 0.20 3.10 7.10 6.60 14.70 1.30 2.85 3.40 7.85 3.40 8.15 0 0.10 -7.65 0 -8.55 -0.10 -0.15 -0.05 -0.90 -1.60 -1.70 -3.55 -0.75 -1.90 -1.75 -3.60 -2.20 -3.70 -1.20 -0.30 -14.85 0 -15.45 0.40 -0.30 0.15 -1.05 1.75 -1.70 3.55 -0.60 1.80 -1.35 3.25 -1.65 3.25 -0.25 0 -2.25 0.10 -4.35 0.15 -2.15 0.05 -3.90 -0.05 -3.90 -0.20z m24.60 -13.85 c0.15 -0.05 -0.45 -1.95 -1.45 -4.20 -0.95 -2.30 -2.05 -5 -2.50 -6 -0.40 -1.05 -0.90 -1.90 -1.10 -1.90 -0.15 0 -0.95 1.75 -1.75 3.90 -0.80 2.10 -1.60 4.10 -1.80 4.35 -0.20 0.30 -0.60 1.20 -0.90 2.10 -0.55 1.60 -0.50 1.60 1.30 1.75 1.85 0.15 7.55 0.15 8.20 0z"/>
  <path d="M243.20 231.25 c-0.15 -0.30 -0.15 -8.25 -0.10 -17.75 l0.15 -17.25 9.50 0 c11.65 0.05 13.60 0.55 17.55 4.50 2 1.95 2.70 3.10 3.05 4.90 1.10 5.05 -0.25 9.80 -3.60 12.75 -2.90 2.55 -5.35 3.25 -12.50 3.60 l-6 0.25 -0.10 4.70 -0.05 4.70 -3.85 0.05 c-2.20 0.05 -3.95 -0.15 -4.05 -0.45z m16.60 -16.25 c2.85 -0.65 4.45 -1.95 5.20 -4.30 0.45 -1.35 0.40 -2.05 -0.40 -3.85 -0.85 -1.85 -1.35 -2.35 -3.15 -2.95 -2 -0.65 -8 -0.75 -9.80 -0.15 -0.70 0.25 -0.90 6.45 -0.35 9.75 0.30 1.75 0.30 1.75 3.15 1.90 1.55 0.10 3.95 -0.10 5.35 -0.40z"/>
  <path d="M277.35 231.50 c-0.05 -0.15 -0.05 -8.20 0.05 -17.85 l0.15 -17.60 3.95 0 4 0.05 0 17.80 0 17.85 -4.05 0 c-2.20 0 -4.10 -0.10 -4.10 -0.25z"/>
  <path d="M155.60 179.25 c-0.80 -0.65 -2.65 -3.55 -4.10 -6.35 -3.25 -6.45 -4.60 -8.25 -6.65 -8.80 -2.40 -0.70 -3.60 0.65 -4.70 5.30 -0.50 2.10 -1.35 4.35 -1.95 5.05 -1.35 1.55 -3.85 1.55 -5.55 -0.05 -3.35 -3.15 -6.40 -13.15 -7.55 -25.05 -0.65 -6.55 -0.30 -24 0.55 -27.95 0.15 -0.85 -1.20 -1.30 -10.25 -3.60 -17.45 -4.45 -28.10 -10.10 -32.20 -17.10 -0.70 -1.20 -1.55 -2.20 -1.85 -2.20 -0.35 0 -2.35 0.60 -4.45 1.35 -2.15 0.70 -4.05 1.20 -4.20 1 -0.75 -0.70 1.05 -1.80 4.60 -2.95 l3.75 -1.15 -0.35 -2 c-0.20 -1.10 -0.35 -2.40 -0.30 -2.95 0.05 -0.85 -0.30 -0.90 -5.75 -0.55 -4.75 0.30 -5.75 0.25 -5.55 -0.30 0.30 -0.85 3.10 -1.40 7.80 -1.40 3.40 -0.05 3.60 -0.10 3.60 -1.15 0 -0.65 0.15 -1.95 0.30 -2.95 l0.30 -1.85 -4.90 -1.15 c-5.25 -1.20 -6.40 -1.70 -5.30 -2.40 0.65 -0.40 4.80 0.30 8.55 1.40 0.95 0.30 1.80 0.45 1.90 0.40 0.05 -0.10 0.70 -2.30 1.35 -4.95 3.40 -13.50 11.50 -26.90 23.80 -39.60 4.70 -4.85 13.05 -11.80 14.20 -11.80 0.40 0 0.05 12.60 -0.50 18.35 -0.15 1.65 0 2.15 0.55 2.15 1.35 0 0.75 0.70 -1.95 2.45 -1.50 0.90 -4 2.90 -5.60 4.40 l-2.95 2.70 3.60 -1.80 c5.75 -2.80 12.15 -6.75 12.15 -7.45 0 -0.40 0.50 -0.80 1.15 -1 1.10 -0.25 12.75 0.10 14.70 0.45 0.50 0.10 1.20 0.20 1.55 0.20 1.25 0.10 0.50 1.35 -1.30 2.15 -3.95 1.85 -15 11.35 -13.70 11.80 0.25 0.05 4.50 -1.85 9.40 -4.25 4.90 -2.45 10.65 -4.95 12.70 -5.60 2.05 -0.65 3.90 -1.40 4.10 -1.70 0.20 -0.35 2.25 0 6.15 1.10 l5.85 1.60 4.10 -1.50 c6.65 -2.40 11.20 -3.15 20.05 -3.30 9.65 -0.15 11.30 0.05 10.90 1.20 -0.60 1.60 -6.55 10.35 -9.70 14.25 -5.70 7 -5.20 5.75 -3.75 10.15 5.30 16 4 30.30 -3.50 38.55 -5 5.55 -13 8.20 -27.55 9.20 -4.75 0.35 -8.95 0.80 -9.25 1 -0.90 0.60 1.10 2.20 4.15 3.25 2.40 0.85 2.45 0.95 4.40 5.40 1.05 2.45 2.35 5.60 2.80 6.90 0.80 2.10 1 2.30 1.45 1.50 0.25 -0.50 0.60 -3.10 0.70 -5.80 0.15 -3.40 0.40 -4.85 0.80 -4.70 0.30 0.10 2.75 0.75 5.45 1.35 3.25 0.75 4.85 1.35 4.85 1.80 0 0.40 -0.30 0.70 -0.70 0.70 -0.55 0 -0.55 0.40 0.05 2.40 1.35 4.45 1.45 4.55 2.15 2.85 1.40 -3.50 1.50 -4.25 0.45 -4.25 -0.60 0 -0.95 -0.35 -0.95 -1 0 -1.20 -0.45 -1.15 5.75 -0.25 6.05 0.95 16.45 0.90 21.05 -0.05 4.50 -0.95 9.40 -3.35 11.95 -5.90 3.65 -3.65 5.75 -9.45 5.55 -15.20 -0.20 -5.30 -2.20 -8.20 -8.50 -12.35 -2.25 -1.45 -4.60 -3.20 -5.25 -3.90 -2.25 -2.50 -1.15 -7.50 2.05 -9.15 2.10 -1.10 6.95 -1.10 10.05 -0.05 13 4.55 16.40 19.95 8.25 37.25 -2.30 4.90 -7.20 10.40 -11.65 13.05 -3.20 1.95 -9.05 4.15 -13.35 5.05 -1.60 0.30 -2.90 0.75 -2.90 1 0 0.25 0.50 1.65 1.05 3.10 0.60 1.45 1.60 4.10 2.20 5.90 0.65 1.80 2.20 5.95 3.50 9.25 3.75 9.50 6.25 17.15 6.25 18.90 0 5.65 -6.35 2.95 -19.50 -8.40 -8.75 -7.50 -21 -8.65 -24.70 -2.30 -0.55 0.95 -1.70 3.95 -2.60 6.70 -0.90 2.75 -2.05 5.40 -2.50 5.90 -1.15 1.30 -2.85 1.20 -4.60 -0.30z m-56.40 -83.85 c0.45 -0.65 1.50 -1.45 2.40 -1.90 0.85 -0.40 1.65 -1 1.75 -1.35 0.40 -1.15 -2.30 -2.30 -5.50 -2.35 -2.60 -0.05 -3.10 0.10 -3.25 0.85 -0.30 1.45 0.30 3.05 1.60 4.50 1.50 1.65 2 1.70 3 0.25z m35.80 -4.40 c2.80 -0.75 4.25 -2.30 5.20 -5.55 1.60 -5.40 0.60 -11.50 -2.50 -14.95 -2.15 -2.35 -4.50 -3.20 -7.75 -2.85 -8.55 1.05 -15.05 8.90 -16.65 20.20 -0.35 2.50 -0.55 2.40 6.85 3.40 5.25 0.70 11.75 0.60 14.85 -0.25z m-35.45 -7.60 c1 -4.60 0.90 -13.20 -0.20 -15.25 -2.30 -4.30 -6.85 -3.25 -9.75 2.20 -1.90 3.65 -2.65 7.35 -1.85 9.60 0.70 2.15 3.25 4.30 6.50 5.55 4.20 1.60 4.50 1.45 5.30 -2.10z m87.40 -23.70 c1.95 -2.10 3.55 -4 3.55 -4.25 0 -0.85 -2.65 -1.05 -6.40 -0.50 -3.60 0.60 -7.60 1.55 -7.60 1.85 0 0.25 6.25 6.60 6.60 6.65 0.15 0 1.90 -1.65 3.85 -3.75z"/>
 </g>
 <g fill="#233945">
  <path d="M130 231.70 c-5.25 -1.40 -10 -5.35 -12.15 -10.10 -2.20 -5 -1.60 -13.15 1.30 -17.45 3.85 -5.65 9.10 -8.25 16.60 -8.25 5.50 0 9.45 1.30 12.45 4.15 l2.05 1.90 -2.60 2.60 -2.55 2.60 -1.70 -1.40 c-2.30 -1.95 -4.45 -2.75 -7.40 -2.75 -6.30 0 -10.95 4.60 -11 10.90 0 3.30 1.05 5.80 3.35 8.20 4 4.10 10.90 4.10 15.30 0 l1.35 -1.30 2.50 2.45 c1.40 1.35 2.50 2.75 2.50 3.05 0 0.95 -4.45 4 -7.25 4.95 -3.30 1.15 -9.30 1.35 -12.75 0.45z"/>
  <path d="M158.60 231.95 c-3.25 -0.60 -5.20 -1.95 -6.50 -4.45 -0.85 -1.70 -1.10 -2.80 -0.95 -4.45 0.30 -2.80 1.60 -4.50 4.55 -6 2.05 -1 3.15 -1.20 7.70 -1.25 l5.35 -0.05 -0.15 -1.25 c-0.05 -0.70 -0.70 -1.80 -1.40 -2.50 -1.05 -1.10 -1.65 -1.25 -4.60 -1.25 -2.55 0 -3.90 0.30 -5.55 1.15 -1.20 0.65 -2.25 1.10 -2.30 1 -0.05 -0.10 -0.75 -1.35 -1.50 -2.85 -1.50 -3.05 -1.60 -2.90 2.75 -4.60 3.50 -1.40 10.20 -1.70 13.65 -0.65 3.10 0.95 5.95 3.80 6.80 6.75 0.40 1.45 0.55 5.20 0.45 11.15 l-0.15 8.95 -2.50 0.10 c-3.55 0.15 -4.75 -0.20 -4.75 -1.30 0 -1.20 -0.10 -1.20 -2.30 0.30 -1 0.70 -2.45 1.30 -3.15 1.30 -0.70 0.05 -1.75 0.10 -2.30 0.15 -0.55 0.05 -2 -0.05 -3.15 -0.25z m8.30 -6.40 c1.35 -0.70 2.10 -2.10 2.10 -3.75 0 -1.25 -0.10 -1.30 -3.50 -1.30 -4.05 0 -5.90 0.70 -6.35 2.40 -0.80 3.30 3.70 4.80 7.75 2.65z"/>
  <path d="M190 231.85 c-1.25 -0.25 -2.85 -0.90 -3.65 -1.45 -2.60 -1.85 -3.10 -3.50 -3.35 -11.65 l-0.25 -7.50 -1.95 0 -1.90 0 -0.10 -3 -0.05 -3 2.15 -0.15 2.10 -0.15 0 -3.25 0 -3.20 4 0 4 0 0 3.25 0 3.25 3.15 0 c1.75 0 3.30 0.10 3.40 0.20 0.10 0.10 0.15 1.55 0.05 3.20 l-0.20 3 -3.20 -0.20 -3.20 -0.20 0 6.20 c0 5.25 0.15 6.35 0.90 7.30 1.05 1.25 3.65 1.50 4.90 0.50 0.55 -0.50 0.75 -0.40 1 0.30 0.20 0.55 0.65 1.70 1 2.65 0.40 0.90 0.70 1.95 0.70 2.30 0 1.45 -5.65 2.40 -9.50 1.60z"/>
  <path d="M40.25 231.65 l-1.50 -0.20 0 -15.85 0 -15.85 -3.75 -0.10 c-2.05 -0.05 -4.80 -0.10 -6.10 -0.10 -2.30 -0.05 -2.40 -0.10 -2.40 -1.50 0 -1.40 0.05 -1.45 3.65 -1.75 3.80 -0.35 23.70 -0.30 24.70 0.05 0.30 0.15 0.50 0.85 0.45 1.55 -0.15 1.30 -0.25 1.35 -4.10 1.65 -2.15 0.15 -4.90 0.25 -6.05 0.20 l-2.15 -0.05 -0.05 6 c0 3.35 0 10.20 0.05 15.35 0.05 8.70 -0.15 11.05 -0.95 10.85 -0.15 0 -0.95 -0.15 -1.80 -0.25z"/>
  <path d="M58.45 231.55 c-0.30 -1.15 -0.40 -28.30 -0.15 -32.35 l0.30 -5.10 1.55 0.20 c0.90 0.05 1.75 0.15 1.95 0.15 0.20 0.05 0.30 3.20 0.25 7.05 -0.05 3.85 0.05 7 0.20 7 0.20 0 0.60 -0.30 0.90 -0.70 1.15 -1.35 5.65 -2.90 8.50 -2.90 5.65 0 9.50 2.80 10.55 7.70 0.35 1.60 0.50 5.90 0.40 10.85 l-0.15 8.20 -1.60 0.10 -1.55 0.15 -0.20 -8.85 c-0.20 -9.55 -0.70 -11.75 -3.25 -13.40 -2.90 -1.90 -8.45 -1.45 -10.95 0.90 -2.60 2.40 -2.90 3.60 -2.95 12.20 -0.05 4.40 -0.10 8.25 -0.15 8.50 -0.10 0.50 -3.55 0.80 -3.65 0.30z"/>
  <path d="M97 231.25 c-10.75 -3.45 -12 -19.80 -1.95 -24.90 6.45 -3.30 14.30 -0.90 17.55 5.35 1.10 2.20 1.90 6.45 1.35 7.35 -0.25 0.45 -3.10 0.60 -10.95 0.60 -12 -0.05 -11.90 -0.10 -9.90 3.75 2.80 5.40 11.35 6.90 15.95 2.75 l1.25 -1.15 1.20 1.25 c1.15 1.20 1.15 1.25 0.20 2.30 -2.70 2.95 -9.85 4.30 -14.70 2.70z m7.40 -14.75 l6.10 0 -0.30 -1.35 c-0.45 -1.90 -2.70 -4.70 -4.70 -5.85 -3.35 -1.95 -8.35 -1 -11.25 2.10 -1.30 1.40 -2.50 4.30 -2.10 4.95 0.15 0.25 1.55 0.35 3.20 0.30 1.60 -0.05 5.65 -0.10 9.05 -0.15z"/>
 </g>
 <g fill="#e65535">
  <path d="M159.30 140.90 c-0.40 -0.65 -1.65 -3.50 -2.80 -6.40 -1.10 -2.90 -2.70 -6.45 -3.55 -7.85 -0.80 -1.45 -1.30 -2.65 -1.15 -2.65 1.25 0 10.60 3.30 11.05 3.90 1.35 1.70 -0.50 13.45 -2.20 13.95 -0.30 0.15 -0.90 -0.30 -1.35 -0.95z"/>
  <path d="M172.10 139.90 c-0.30 -0.35 -0.80 -1.80 -1.15 -3.15 -0.35 -1.40 -1.15 -3.70 -1.75 -5.15 l-1.20 -2.70 2.65 0.35 c1.40 0.20 3.10 0.55 3.75 0.80 0.65 0.25 1.75 0.45 2.45 0.45 0.95 0 1.15 0.15 0.75 0.65 -0.25 0.30 -0.65 1.50 -0.80 2.60 -0.45 2.60 -2.40 6.45 -3.40 6.65 -0.40 0.10 -1 -0.15 -1.30 -0.50z"/>
  <path d="M126.25 61.45 c-0.60 -0.90 0.25 -3.05 1.90 -5 1.95 -2.25 7.30 -6.70 10.55 -8.75 1.25 -0.80 2.30 -1.60 2.30 -1.75 0 -0.40 7.55 0.65 13.15 1.85 2.40 0.50 4.35 1.05 4.35 1.25 0 0.15 -2.30 1.10 -5.10 2 -2.85 0.95 -9.40 3.80 -14.60 6.35 -9 4.35 -11.80 5.30 -12.55 4.05z"/>
  <path d="M107 57.35 c0 -1.60 3.05 -5 7.75 -8.60 l3.75 -2.90 5.90 -0.20 c3.20 -0.10 6.25 -0.25 6.75 -0.35 1.45 -0.35 0.95 0.60 -0.75 1.50 -0.90 0.45 -3.90 2.20 -6.60 3.85 -5.40 3.25 -13.25 7.10 -15.40 7.65 -1.25 0.25 -1.40 0.15 -1.40 -0.95z"/>
 </g>
</svg>